<?xml version="1.0" encoding="UTF-8"?>
<svg version="1.1" xmlns="http://www.w3.org/2000/svg" width="350" height="179">
<path d="M0 0 C115.5 0 231 0 350 0 C350 59.07 350 118.14 350 179 C234.5 179 119 179 0 179 C0 119.93 0 60.86 0 0 Z " fill="#181818" transform="translate(0,0)"/>
<path d="M0 0 C0.99 0 1.98 0 3 0 C2.5253447 6.96161102 -0.21188191 12.63737154 -3 19 C2.28 19 7.56 19 13 19 C12.67 19.99 12.34 20.98 12 22 C10.35451172 21.93425781 10.35451172 21.93425781 8.67578125 21.8671875 C7.22135184 21.8671875 5.7669206 21.86993674 4.3125 21.875 C3.59126953 21.83890625 2.87003906 21.8028125 2.12695312 21.765625 C-0.24388682 21.80892801 -1.83906548 22.00624895 -4 23 C-6.36632233 26.03774937 -7.61555811 29.4301072 -9 33 C-9.42949951 33.99112793 -9.85899902 34.98225586 -10.30151367 36.00341797 C-11.66547552 39.15109875 -12.96269351 42.32027589 -14.25 45.5 C-14.91902344 47.09521484 -14.91902344 47.09521484 -15.6015625 48.72265625 C-18.16743456 55.05958271 -20.1720076 61.08309871 -20 68 C-19.67 68.33 -19.34 68.66 -19 69 C-9.6471205 68.42737472 -2.65362687 63.81982783 3.75 57.1875 C5 56 5 56 7 56 C6.21558705 62.1612072 0.40426663 66.13503132 -4 70 C-9.13587782 73.84702635 -14.13034711 74.69095274 -20.5 74.4609375 C-23 74 -23 74 -26.1875 71.6875 C-28 69 -28 69 -28 66 C-28.6290625 66.3609375 -29.258125 66.721875 -29.90625 67.09375 C-35.60933224 70.18578254 -39.50682399 71.70834647 -46 71 C-47.86224861 69.13775139 -47.12354714 66.57468825 -47.1328125 64.10546875 C-46.99750263 61.9604094 -46.58442567 60.06404304 -46 58 C-50.99514681 61.11753843 -55.409564 64.3091298 -59.625 68.4375 C-63.5254981 72 -63.5254981 72 -67.5625 72 C-68.696875 71.67 -69.83125 71.34 -71 71 C-72.39732415 71.05272921 -73.79376635 71.13685557 -75.1875 71.25 C-79 71 -79 71 -81.5 68.5 C-81.995 67.675 -82.49 66.85 -83 66 C-83.7425 66.61875 -84.485 67.2375 -85.25 67.875 C-90.4340133 71.88082846 -93.49128167 72.41991731 -100 72 C-100.66 71.34 -101.32 70.68 -102 70 C-102 68.68 -102 67.36 -102 66 C-103.19625 66.474375 -104.3925 66.94875 -105.625 67.4375 C-114.43314912 70.71351336 -122.85709028 70.30612996 -132 69 C-133.98 72.63 -135.96 76.26 -138 80 C-138.99 80 -139.98 80 -141 80 C-140.73958333 77.98177083 -140.47916667 75.96354167 -140.21875 73.9453125 C-139.9627515 71.99501656 -139.9627515 71.99501656 -140 70 C-140.9590625 70.495 -140.9590625 70.495 -141.9375 71 C-145.93671126 72.3058649 -149.8209137 72.55830623 -154 72 C-156 70 -156 70 -156.125 67.375 C-156.08375 66.59125 -156.0425 65.8075 -156 65 C-157.010625 65.495 -158.02125 65.99 -159.0625 66.5 C-162.78920374 68.10908593 -165.92792727 68.32576582 -170 68 C-171 67 -171 67 -171.1328125 64.9609375 C-171.11741553 59.86453933 -170.87350097 55.0226306 -170 50 C-170.53109375 50.40992188 -171.0621875 50.81984375 -171.609375 51.2421875 C-172.31578125 51.78101563 -173.0221875 52.31984375 -173.75 52.875 C-174.44609375 53.40867188 -175.1421875 53.94234375 -175.859375 54.4921875 C-178 56 -178 56 -180.140625 56.9453125 C-182.53302935 58.30234858 -182.86218968 59.51592556 -184 62 C-185.41168175 63.95128211 -186.87474874 65.86596354 -188.375 67.75 C-189.14585937 68.73484375 -189.91671875 69.7196875 -190.7109375 70.734375 C-193 73 -193 73 -197 73 C-196.50269348 68.02693484 -195.44697666 64.36200187 -193 60 C-193.55429688 60.28875 -194.10859375 60.5775 -194.6796875 60.875 C-195.40414062 61.24625 -196.12859375 61.6175 -196.875 62 C-197.59429687 62.37125 -198.31359375 62.7425 -199.0546875 63.125 C-201 64 -201 64 -203 64 C-202.7525 64.9590625 -202.7525 64.9590625 -202.5 65.9375 C-201.83684158 69.99934532 -201.45994722 73.90195242 -202 78 C-205.15721976 82.11811273 -212.20652153 83.58097823 -217.1875 84.328125 C-220.95538475 84.52793707 -222.84360637 84.10426242 -226 82 C-226.66 81.34 -227.32 80.68 -228 80 C-227.5206753 75.68607774 -226.2542015 73.83430453 -223 71 C-224.485 71.495 -224.485 71.495 -226 72 C-227.51766539 72.11632729 -229.0404346 72.17496239 -230.5625 72.1875 C-231.34753906 72.20167969 -232.13257813 72.21585937 -232.94140625 72.23046875 C-235 72 -235 72 -237 70 C-237.49984245 65.28815179 -236.55253751 62.31210308 -234.3125 58.1875 C-233.81363281 57.23230469 -233.31476563 56.27710938 -232.80078125 55.29296875 C-231 53 -231 53 -228.29296875 52.17578125 C-227.53628906 52.11777344 -226.77960938 52.05976563 -226 52 C-226.56825653 57.54050113 -228.62886517 62.03715966 -231 67 C-224.30108234 65.34211897 -219.39304453 63.33788364 -214 59 C-214.13019531 58.33613281 -214.26039063 57.67226562 -214.39453125 56.98828125 C-215.51307128 49.82753432 -215.51307128 49.82753432 -213.0625 45.875 C-208.89090819 43.3209642 -206.83595123 43.37600629 -202 44 C-200 45.3125 -200 45.3125 -199 47 C-199 47.99 -199 48.98 -199 50 C-201.97 49.67 -204.94 49.34 -208 49 C-208.19834137 53.26433935 -207.68610848 56.10336348 -206 60 C-205.26394531 59.79503906 -204.52789062 59.59007812 -203.76953125 59.37890625 C-202.79371094 59.10949219 -201.81789062 58.84007812 -200.8125 58.5625 C-199.84957031 58.29566406 -198.88664062 58.02882812 -197.89453125 57.75390625 C-195.27336303 57.07119982 -192.661065 56.50107805 -190 56 C-189.62230469 54.7625 -189.24460938 53.525 -188.85546875 52.25 C-186.85303916 46.25091309 -184.09682509 40.66830796 -181.3125 35 C-180.23761233 32.79068991 -179.16339633 30.5810529 -178.08984375 28.37109375 C-177.56503418 27.29327637 -177.04022461 26.21545898 -176.49951172 25.10498047 C-174.07424546 20.08307615 -171.72690344 15.02456257 -169.41137695 9.95117188 C-168.15240733 7.23453905 -167.1357354 5.1357354 -165 3 C-164.01 3 -163.02 3 -162 3 C-162.46251196 9.93767933 -165.2197059 15.65952514 -168.0625 21.9375 C-168.55403564 23.03892334 -169.04557129 24.14034668 -169.55200195 25.27514648 C-173.46304944 33.97349402 -177.59956137 42.53955782 -182 51 C-181.34773438 50.566875 -180.69546875 50.13375 -180.0234375 49.6875 C-170.95842782 43.91156463 -170.95842782 43.91156463 -166 45 C-164.125 46 -164.125 46 -163 48 C-162.53997638 53.52028344 -163.25827486 57.77482458 -165 63 C-157.54840231 61.00316663 -153.38540838 58.57811258 -149 52 C-147.68 52 -146.36 52 -145 52 C-145.56825653 57.54050113 -147.62886517 62.03715966 -150 67 C-142.95339547 65.54208182 -138.04038205 63.94524713 -133.75390625 57.7578125 C-130.01931369 51.61023771 -127.1256001 45.02557302 -124.125 38.5 C-123.50064535 37.153172 -122.87596942 35.8064929 -122.25097656 34.45996094 C-118.44639424 26.24310956 -114.74030438 17.98979704 -111.234375 9.640625 C-110 7 -110 7 -108 5 C-106.68 5 -105.36 5 -104 5 C-104.72552585 9.89239731 -106.53537428 14.25475541 -108.375 18.8125 C-108.71789062 19.6674707 -109.06078125 20.52244141 -109.4140625 21.40332031 C-113.90357801 32.4334592 -118.9519243 43.2169976 -124 54 C-123.10796875 53.566875 -122.2159375 53.13375 -121.296875 52.6875 C-119.54117188 51.8521875 -119.54117188 51.8521875 -117.75 51 C-116.58984375 50.443125 -115.4296875 49.88625 -114.234375 49.3125 C-111 48 -111 48 -107 48 C-107 48.99 -107 49.98 -107 51 C-107.54003662 51.28198242 -108.08007324 51.56396484 -108.63647461 51.85449219 C-111.07772354 53.13916623 -113.50748481 54.44421071 -115.9375 55.75 C-116.78763672 56.1934375 -117.63777344 56.636875 -118.51367188 57.09375 C-119.32255859 57.53203125 -120.13144531 57.9703125 -120.96484375 58.421875 C-121.7137085 58.81987305 -122.46257324 59.21787109 -123.23413086 59.62792969 C-125.36934876 61.28698189 -125.64540395 62.36865279 -126 65 C-115.40660158 65.75071327 -105.46839196 63.73622087 -97 57 C-95.66371996 55.81581687 -94.33061246 54.62804799 -93 53.4375 C-88.6299232 49.57325752 -85.20352931 47.18362744 -79.25 46.6875 C-76 47 -76 47 -74 49 C-74.375 51.625 -74.375 51.625 -75 54 C-76.134375 53.67 -77.26875 53.34 -78.4375 53 C-81.54118836 52.59685187 -82.73108188 52.83354747 -85.4296875 54.50390625 C-89.72476076 58.2145679 -92.99816878 61.66178341 -95 67 C-89.88720709 64.33708703 -86.06062325 61.38672671 -81.9921875 57.29296875 C-80 56 -80 56 -77.2578125 56.30078125 C-76.51273438 56.53152344 -75.76765625 56.76226562 -75 57 C-75.33 60.3 -75.66 63.6 -76 67 C-69.50024217 65.83004359 -66.78273897 63.31568566 -63 58 C-62.29875 56.88625 -61.5975 55.7725 -60.875 54.625 C-59 52 -59 52 -56.75 51.125 C-55.88375 51.063125 -55.88375 51.063125 -55 51 C-54 54 -54 54 -55 57 C-54.12988281 56.45859375 -54.12988281 56.45859375 -53.2421875 55.90625 C-45.34898891 51.21722114 -45.34898891 51.21722114 -40 52 C-39.34 52.33 -38.68 52.66 -38 53 C-38.48575446 57.7765855 -39.08861101 61.56340198 -41 66 C-39.41371392 65.40362909 -37.83107941 64.79754075 -36.25 64.1875 C-35.36828125 63.85105469 -34.4865625 63.51460937 -33.578125 63.16796875 C-27.7162697 60.51237067 -25.8832388 57.22178326 -23.58203125 51.33984375 C-23.27931808 50.59416641 -22.97660492 49.84848907 -22.66471863 49.08021545 C-21.70273675 46.70366136 -20.75735091 44.32090987 -19.8125 41.9375 C-19.16582368 40.32963119 -18.51804917 38.7222036 -17.86914062 37.11523438 C-16.68419657 34.17972662 -15.5069466 31.24133574 -14.33520508 28.30053711 C-13.61115409 26.51073178 -12.86344113 24.72688226 -12 23 C-16.29 23 -20.58 23 -25 23 C-25 22.01 -25 21.02 -25 20 C-23 19 -23 19 -20.2421875 19.24609375 C-16.32591473 19.4687125 -13.69852037 19.37237979 -10 18 C-6.91139548 14.40901205 -5.24787653 10.00794191 -3.48828125 5.66015625 C-2 2 -2 2 0 0 Z " fill="#F0F0F0" transform="translate(334,78)"/>
<path d="M0 0 C0 0.99 0 1.98 0 3 C-4.9920901 2.47120357 -8.89633227 1.36521378 -13.4375 -0.75 C-43.19865023 -14.03443065 -74.83473976 -14.39152949 -105.375 -3.1875 C-130.61026214 6.65651706 -152.72669293 22.26085631 -173 40 C-173.8146875 40.70253906 -174.629375 41.40507813 -175.46875 42.12890625 C-187.24315122 52.47075533 -198.40758553 63.59875699 -208 76 C-208.84032269 77.04078199 -209.68288681 78.0797571 -210.52734375 79.1171875 C-225.94731307 98.18416864 -240.31284236 119.24740787 -250.73046875 141.48046875 C-252 144 -252 144 -254 146 C-256.625 145.625 -256.625 145.625 -259 145 C-258.42613212 140.216095 -256.94242646 136.28423427 -254.9140625 131.96484375 C-250.8343485 122.95147126 -247.55876365 113.70379215 -244.33789062 104.35522461 C-243.37643726 101.56666857 -242.40383216 98.78219146 -241.4296875 95.99804688 C-238.04145293 86.26232288 -234.87191354 76.49989361 -232.03271484 66.59008789 C-230.81140352 62.34437088 -229.48543492 58.14009166 -228.125 53.9375 C-223.79019054 40.3804266 -219.89975581 26.68737822 -216 13 C-216.66 13 -217.32 13 -218 13 C-218.22171875 13.65226562 -218.4434375 14.30453125 -218.671875 14.9765625 C-220.46291485 19.05381204 -222.83567897 22.64148589 -225.25 26.375 C-229.83764463 33.55278138 -234.33518322 40.77714132 -238.75 48.0625 C-249.08865942 65.10782287 -259.54857251 82.07895515 -270.06225586 99.0168457 C-273.05332081 103.83928765 -276.02402939 108.67338743 -278.9765625 113.51953125 C-291.14907325 133.47814003 -291.14907325 133.47814003 -297.1875 142.5 C-297.60854004 143.14622314 -298.02958008 143.79244629 -298.46337891 144.45825195 C-300.8976299 148.01588955 -302.79799939 149.86553447 -307 151 C-308 148 -308 148 -306.99047852 145.77709961 C-306.45865967 144.91093018 -305.92684082 144.04476074 -305.37890625 143.15234375 C-304.78150635 142.1682251 -304.18410645 141.18410645 -303.56860352 140.17016602 C-302.90658936 139.10338623 -302.2445752 138.03660645 -301.5625 136.9375 C-300.54337524 135.26868774 -300.54337524 135.26868774 -299.50366211 133.56616211 C-297.70409529 130.62000456 -295.89223781 127.68160804 -294.07714844 124.74499512 C-292.37828966 121.99282079 -290.68966093 119.23439027 -289 116.4765625 C-285.68450929 111.07155978 -282.35680713 105.67419327 -279.02490234 100.27929688 C-275.63724824 94.79304537 -272.25547877 89.30317496 -268.875 83.8125 C-268.20992432 82.73234619 -267.54484863 81.65219238 -266.85961914 80.53930664 C-262.55257575 73.53857995 -258.2687826 66.52410982 -254 59.5 C-252.2713132 56.65888721 -250.54211617 53.81808616 -248.8125 50.97753906 C-247.56167231 48.92270413 -246.31172651 46.86733219 -245.0625 44.81152344 C-237.95312713 33.12340896 -230.7829765 21.48365743 -223.25 10.0625 C-222.39148438 8.74838135 -222.39148438 8.74838135 -221.515625 7.40771484 C-220.979375 6.60414551 -220.443125 5.80057617 -219.890625 4.97265625 C-219.42688477 4.27406494 -218.96314453 3.57547363 -218.48535156 2.85571289 C-216.83040473 0.78811742 -215.24197441 -0.59239367 -213 -2 C-209.8125 -2.25 -209.8125 -2.25 -207 -2 C-206 -1 -206 -1 -205.84350586 2.17163086 C-205.99229734 5.81156728 -206.52555631 8.75848189 -207.50390625 12.25390625 C-207.99165527 14.01444336 -207.99165527 14.01444336 -208.48925781 15.81054688 C-208.84342773 17.04869141 -209.19759766 18.28683594 -209.5625 19.5625 C-209.92708329 20.85863245 -210.29133751 22.15485751 -210.65527344 23.45117188 C-213.59065958 33.83863092 -216.80470262 44.12956862 -220.16113281 54.38793945 C-221.10502564 57.32702834 -222.00673328 60.27750304 -222.90625 63.23046875 C-225.07069172 70.29758886 -227.39789091 77.30597307 -229.75 84.3125 C-230.16121094 85.54162109 -230.57242188 86.77074219 -230.99609375 88.03710938 C-231.99600269 91.02520935 -232.99732198 94.01282831 -234 97 C-233.34 97 -232.68 97 -232 97 C-231.72019287 96.41081787 -231.44038574 95.82163574 -231.15209961 95.21459961 C-230.08619849 93.16569327 -228.94377943 91.41473015 -227.56640625 89.56640625 C-227.0880835 88.92413086 -226.60976074 88.28185547 -226.11694336 87.62011719 C-225.60397705 86.94110352 -225.09101074 86.26208984 -224.5625 85.5625 C-224.02826416 84.85383789 -223.49402832 84.14517578 -222.94360352 83.41503906 C-198.87631538 51.75147981 -169.51921242 23.99302801 -135 4 C-134.37287109 3.63519531 -133.74574219 3.27039063 -133.09960938 2.89453125 C-92.82012251 -20.26913833 -40.66234914 -24.94566588 0 0 Z " fill="#F4F4F4" transform="translate(312,26)"/>
<path d="M0 0 C2 1.3125 2 1.3125 3 3 C3 3.99 3 4.98 3 6 C0.03 5.67 -2.94 5.34 -6 5 C-6.21222719 9.56288469 -5.77997029 11.55007426 -4 16 C0.29 15.01 4.58 14.02 9 13 C9.495 14.98 9.495 14.98 10 17 C9.29875 17.12375 8.5975 17.2475 7.875 17.375 C4.82343613 18.03838345 1.94659062 18.97211955 -1 20 C-0.835 20.639375 -0.67 21.27875 -0.5 21.9375 C0.16315842 25.99934532 0.54005278 29.90195242 0 34 C-3.15721976 38.11811273 -10.20652153 39.58097823 -15.1875 40.328125 C-18.95538475 40.52793707 -20.84360637 40.10426242 -24 38 C-24.66 37.34 -25.32 36.68 -26 36 C-25.5206753 31.68607774 -24.2542015 29.83430453 -21 27 C-21.99 27.33 -22.98 27.66 -24 28 C-25.51766539 28.11632729 -27.0404346 28.17496239 -28.5625 28.1875 C-29.74005859 28.20876953 -29.74005859 28.20876953 -30.94140625 28.23046875 C-33 28 -33 28 -35 26 C-35.49984245 21.28815179 -34.55253751 18.31210308 -32.3125 14.1875 C-31.81363281 13.23230469 -31.31476563 12.27710938 -30.80078125 11.29296875 C-29 9 -29 9 -26.29296875 8.17578125 C-25.53628906 8.11777344 -24.77960938 8.05976563 -24 8 C-24.56825653 13.54050113 -26.62886517 18.03715966 -29 23 C-22.30108234 21.34211897 -17.39304453 19.33788364 -12 15 C-12.13019531 14.33613281 -12.26039062 13.67226562 -12.39453125 12.98828125 C-13.51307128 5.82753432 -13.51307128 5.82753432 -11.0625 1.875 C-6.89090819 -0.6790358 -4.83595123 -0.62399371 0 0 Z " fill="#F0F0F0" transform="translate(132,122)"/>
<path d="M0 0 C0.33 1.32 0.66 2.64 1 4 C0.01 4.515625 -0.98 5.03125 -2 5.5625 C-5.89017804 7.75270186 -8.98048892 10.54142545 -12.203125 13.609375 C-14 15 -14 15 -17 15 C-16.40632048 11.46167007 -15.06937798 9.5845978 -12.6875 6.9375 C-11.79611328 5.93009766 -11.79611328 5.93009766 -10.88671875 4.90234375 C-7.29847018 1.28437884 -5.21694742 -0.43474562 0 0 Z " fill="#222222" transform="translate(256,130)"/>
<path d="M0 0 C0.57492188 0.22042969 1.14984375 0.44085938 1.7421875 0.66796875 C2.0546875 3.48046875 2.0546875 3.48046875 1.7421875 6.66796875 C-1.30079605 9.61279154 -4.0073623 9.83624343 -8.0703125 9.85546875 C-9.46672522 9.80763079 -10.86299171 9.75001703 -12.2578125 9.66796875 C-10.85089766 6.33923725 -9.25089669 4.53629503 -6.3828125 2.35546875 C-5.70476562 1.82308594 -5.02671875 1.29070312 -4.328125 0.7421875 C-2.2578125 -0.33203125 -2.2578125 -0.33203125 0 0 Z " fill="#272727" transform="translate(124.2578125,147.33203125)"/>
<path d="M0 0 C0.99 0.33 1.98 0.66 3 1 C2.39622642 6.43396226 2.39622642 6.43396226 0.6875 8.875 C-1 10 -1 10 -5 10 C-4.49701212 5.59885603 -2.91227269 3.28804981 0 0 Z " fill="#EFEFEF" transform="translate(194,114)"/>
<path d="M0 0 C0.99 0.33 1.98 0.66 3 1 C2.47679633 4.76706644 1.72611199 7.27388801 -1 10 C-2.32 10 -3.64 10 -5 10 C-4.49701212 5.59885603 -2.91227269 3.28804981 0 0 Z " fill="#F1F1F1" transform="translate(113,114)"/>
<path d="M0 0 C-1.50223584 4.20626034 -4.28550034 5.73900021 -8 8 C-8.66 7.67 -9.32 7.34 -10 7 C-8.71372289 5.82739389 -7.42080217 4.6620717 -6.125 3.5 C-5.04605469 2.52546875 -5.04605469 2.52546875 -3.9453125 1.53125 C-2 0 -2 0 0 0 Z " fill="#515151" transform="translate(123,140)"/>
</svg>
